<svg aria-hidden="true" style="position: absolute; width: 0; height: 0; overflow: hidden;" version="1.1" xmlns="http://www.w3.org/2000/svg" xmlns:xlink="http://www.w3.org/1999/xlink">
<defs>
<symbol id="icon-app-store" viewBox="0 0 108 32">
<path fill="#000" style="fill: var(--color1, #000)" d="M104.221 0.049h-99.403c-2.196 0-3.976 1.733-3.976 3.871v23.226c0 2.138 1.78 3.871 3.976 3.871h99.403c2.196 0 3.975-1.733 3.975-3.871v-23.226c0-2.138-1.78-3.871-3.975-3.871z"></path>
<path fill="#a6a6a6" style="fill: var(--color2, #a6a6a6)" d="M104.221 0.668c0.886 0 1.735 0.343 2.361 0.952 0.627 0.61 0.979 1.437 0.979 2.299v23.226c0 0.862-0.352 1.689-0.979 2.299-0.626 0.61-1.475 0.952-2.361 0.952h-99.403c-0.886 0-1.735-0.343-2.362-0.952s-0.978-1.437-0.978-2.299v-23.226c0-0.862 0.352-1.689 0.978-2.299s1.476-0.952 2.362-0.952h99.403zM104.221 0.049h-99.403c-1.055 0-2.066 0.408-2.812 1.134s-1.165 1.711-1.165 2.737v23.226c0 1.027 0.419 2.011 1.165 2.737s1.757 1.134 2.812 1.134h99.403c1.054 0 2.066-0.408 2.811-1.134 0.746-0.726 1.164-1.711 1.164-2.737v-23.226c0-1.027-0.418-2.011-1.164-2.737-0.745-0.726-1.757-1.134-2.811-1.134z"></path>
<path fill="#fff" style="fill: var(--color3, #fff)" d="M26.378 15.001c-0.022-2.377 2-3.534 2.092-3.588-1.145-1.625-2.919-1.847-3.543-1.865-1.49-0.153-2.936 0.868-3.695 0.868-0.774 0-1.944-0.853-3.204-0.828-1.621 0.024-3.138 0.938-3.97 2.358-1.717 2.894-0.436 7.146 1.209 9.486 0.823 1.146 1.784 2.425 3.043 2.38 1.231-0.049 1.691-0.764 3.177-0.764 1.472 0 1.904 0.764 3.188 0.735 1.321-0.021 2.153-1.151 2.947-2.307 0.951-1.313 1.333-2.606 1.348-2.673-0.031-0.010-2.566-0.952-2.591-3.802z"></path>
<path fill="#fff" style="fill: var(--color3, #fff)" d="M23.954 8.009c0.662-0.806 1.115-1.903 0.99-3.016-0.958 0.041-2.157 0.645-2.847 1.434-0.611 0.695-1.156 1.834-1.015 2.905 1.077 0.078 2.182-0.529 2.873-1.323z"></path>
<path fill="#fff" style="fill: var(--color3, #fff)" d="M44.197 23.646h-1.721l-0.943-2.884h-3.276l-0.898 2.884h-1.675l3.246-9.817h2.005l3.262 9.817zM41.249 19.553l-0.852-2.563c-0.090-0.262-0.259-0.879-0.508-1.849h-0.030c-0.099 0.418-0.259 1.034-0.479 1.849l-0.837 2.563h2.707z"></path>
<path fill="#fff" style="fill: var(--color3, #fff)" d="M52.544 20.020c0 1.204-0.334 2.155-1.002 2.854-0.599 0.622-1.342 0.932-2.229 0.932-0.958 0-1.646-0.335-2.065-1.005h-0.030v3.729h-1.615v-7.633c0-0.757-0.021-1.534-0.060-2.33h1.421l0.090 1.122h0.030c0.539-0.845 1.356-1.267 2.453-1.267 0.858 0 1.574 0.33 2.147 0.99 0.574 0.661 0.861 1.53 0.861 2.608zM50.898 20.077c0-0.689-0.159-1.257-0.479-1.704-0.349-0.466-0.818-0.699-1.406-0.699-0.399 0-0.761 0.13-1.084 0.386-0.324 0.258-0.536 0.595-0.636 1.013-0.050 0.195-0.075 0.354-0.075 0.479v1.18c0 0.515 0.162 0.949 0.486 1.304s0.745 0.532 1.264 0.532c0.608 0 1.082-0.229 1.421-0.685s0.509-1.058 0.509-1.806z"></path>
<path fill="#fff" style="fill: var(--color3, #fff)" d="M60.907 20.020c0 1.204-0.334 2.155-1.003 2.854-0.598 0.622-1.341 0.932-2.228 0.932-0.958 0-1.646-0.335-2.064-1.005h-0.030v3.729h-1.615v-7.633c0-0.757-0.020-1.534-0.060-2.33h1.421l0.090 1.122h0.030c0.538-0.845 1.356-1.267 2.453-1.267 0.857 0 1.573 0.33 2.147 0.99 0.572 0.661 0.859 1.53 0.859 2.608zM59.261 20.077c0-0.689-0.16-1.257-0.48-1.704-0.349-0.466-0.817-0.699-1.406-0.699-0.399 0-0.761 0.13-1.085 0.386-0.324 0.258-0.536 0.595-0.635 1.013-0.049 0.195-0.075 0.354-0.075 0.479v1.18c0 0.515 0.162 0.949 0.485 1.304 0.324 0.354 0.746 0.532 1.265 0.532 0.608 0 1.082-0.229 1.421-0.685s0.509-1.058 0.509-1.806z"></path>
<path fill="#fff" style="fill: var(--color3, #fff)" d="M70.257 20.893c0 0.835-0.298 1.514-0.896 2.039-0.657 0.573-1.572 0.859-2.747 0.859-1.085 0-1.955-0.204-2.613-0.611l0.374-1.311c0.709 0.418 1.487 0.627 2.335 0.627 0.608 0 1.082-0.134 1.422-0.401 0.339-0.267 0.508-0.626 0.508-1.073 0-0.398-0.139-0.734-0.419-1.006-0.278-0.272-0.743-0.525-1.391-0.759-1.765-0.641-2.647-1.58-2.647-2.815 0-0.807 0.309-1.469 0.928-1.984 0.617-0.516 1.44-0.773 2.469-0.773 0.918 0 1.68 0.156 2.288 0.466l-0.404 1.282c-0.568-0.301-1.211-0.451-1.93-0.451-0.568 0-1.012 0.136-1.331 0.408-0.269 0.243-0.404 0.539-0.404 0.889 0 0.388 0.154 0.709 0.463 0.961 0.269 0.233 0.758 0.485 1.467 0.758 0.868 0.34 1.505 0.738 1.915 1.194 0.408 0.454 0.612 1.023 0.612 1.702z"></path>
<path fill="#fff" style="fill: var(--color3, #fff)" d="M75.598 17.748h-1.781v3.437c0 0.874 0.314 1.311 0.943 1.311 0.289 0 0.528-0.024 0.718-0.073l0.045 1.194c-0.318 0.116-0.737 0.174-1.256 0.174-0.638 0-1.137-0.19-1.496-0.568-0.358-0.379-0.539-1.015-0.539-1.908v-3.568h-1.061v-1.18h1.061v-1.296l1.587-0.466v1.762h1.781v1.182z"></path>
<path fill="#fff" style="fill: var(--color3, #fff)" d="M83.631 20.049c0 1.088-0.32 1.981-0.958 2.68-0.669 0.719-1.557 1.078-2.664 1.078-1.067 0-1.916-0.344-2.55-1.033s-0.95-1.559-0.95-2.607c0-1.097 0.326-1.995 0.98-2.694 0.652-0.699 1.533-1.049 2.64-1.049 1.067 0 1.925 0.344 2.573 1.034 0.62 0.669 0.929 1.533 0.929 2.591zM81.956 20.099c0-0.653-0.143-1.213-0.433-1.68-0.339-0.565-0.823-0.847-1.45-0.847-0.649 0-1.143 0.283-1.481 0.847-0.29 0.468-0.433 1.036-0.433 1.709 0 0.653 0.143 1.213 0.433 1.679 0.349 0.565 0.837 0.847 1.467 0.847 0.617 0 1.101-0.288 1.45-0.862 0.298-0.476 0.448-1.042 0.448-1.694z"></path>
<path fill="#fff" style="fill: var(--color3, #fff)" d="M88.882 17.95c-0.16-0.029-0.33-0.044-0.509-0.044-0.568 0-1.008 0.209-1.317 0.627-0.269 0.369-0.404 0.835-0.404 1.398v3.714h-1.615l0.015-4.849c0-0.816-0.020-1.559-0.061-2.228h1.407l0.059 1.354h0.045c0.171-0.465 0.44-0.84 0.808-1.121 0.36-0.253 0.749-0.379 1.168-0.379 0.149 0 0.284 0.010 0.404 0.029v1.5z"></path>
<path fill="#fff" style="fill: var(--color3, #fff)" d="M96.107 19.772c0 0.282-0.019 0.519-0.059 0.713h-4.846c0.019 0.699 0.253 1.234 0.703 1.603 0.408 0.33 0.936 0.495 1.585 0.495 0.718 0 1.372-0.111 1.961-0.335l0.253 1.092c-0.688 0.292-1.5 0.437-2.437 0.437-1.127 0-2.013-0.323-2.657-0.969-0.642-0.645-0.965-1.512-0.965-2.6 0-1.067 0.299-1.956 0.899-2.665 0.627-0.757 1.475-1.135 2.542-1.135 1.048 0 1.841 0.378 2.38 1.135 0.427 0.601 0.641 1.345 0.641 2.228zM94.566 19.364c0.011-0.466-0.095-0.869-0.314-1.209-0.28-0.437-0.709-0.656-1.287-0.656-0.528 0-0.958 0.213-1.286 0.641-0.269 0.34-0.429 0.748-0.478 1.223l3.365 0.001z"></path>
<path fill="#fff" style="fill: var(--color3, #fff)" d="M40.715 7.79c0 0.868-0.267 1.522-0.802 1.961-0.495 0.405-1.198 0.608-2.109 0.608-0.452 0-0.838-0.019-1.161-0.057v-4.744c0.422-0.066 0.877-0.1 1.368-0.1 0.868 0 1.521 0.184 1.962 0.551 0.494 0.415 0.742 1.009 0.742 1.782zM39.878 7.811c0-0.563-0.153-0.994-0.459-1.295s-0.753-0.451-1.342-0.451c-0.25 0-0.463 0.016-0.639 0.050v3.606c0.098 0.015 0.277 0.021 0.536 0.021 0.608 0 1.077-0.165 1.407-0.493s0.497-0.808 0.497-1.438z"></path>
<path fill="#fff" style="fill: var(--color3, #fff)" d="M45.155 8.548c0 0.535-0.157 0.973-0.471 1.317-0.329 0.353-0.764 0.53-1.309 0.53-0.524 0-0.942-0.169-1.253-0.508s-0.466-0.766-0.466-1.281c0-0.538 0.16-0.98 0.481-1.323s0.753-0.515 1.297-0.515c0.524 0 0.946 0.169 1.265 0.508 0.303 0.329 0.455 0.754 0.455 1.273zM44.331 8.573c0-0.321-0.071-0.596-0.213-0.825-0.167-0.277-0.404-0.416-0.712-0.416-0.319 0-0.561 0.139-0.728 0.416-0.142 0.229-0.213 0.509-0.213 0.839 0 0.321 0.071 0.596 0.213 0.825 0.172 0.277 0.411 0.416 0.721 0.416 0.303 0 0.541-0.141 0.712-0.423 0.147-0.234 0.221-0.511 0.221-0.832z"></path>
<path fill="#fff" style="fill: var(--color3, #fff)" d="M51.107 6.838l-1.118 3.477h-0.727l-0.463-1.51c-0.117-0.377-0.213-0.752-0.287-1.123h-0.014c-0.069 0.382-0.164 0.756-0.287 1.123l-0.492 1.51h-0.736l-1.051-3.477h0.816l0.404 1.653c0.098 0.391 0.178 0.763 0.242 1.116h0.014c0.059-0.291 0.157-0.661 0.295-1.109l0.507-1.66h0.647l0.486 1.624c0.117 0.396 0.213 0.777 0.286 1.145h0.022c0.054-0.358 0.135-0.739 0.242-1.145l0.433-1.624 0.78-0.001z"></path>
<path fill="#fff" style="fill: var(--color3, #fff)" d="M55.224 10.316h-0.794v-1.992c0-0.614-0.239-0.921-0.72-0.921-0.236 0-0.426 0.084-0.574 0.253-0.146 0.169-0.221 0.368-0.221 0.596v2.062h-0.794v-2.483c0-0.305-0.010-0.637-0.029-0.995h0.698l0.037 0.544h0.022c0.092-0.169 0.23-0.308 0.411-0.42 0.215-0.13 0.456-0.195 0.72-0.195 0.333 0 0.611 0.105 0.831 0.315 0.274 0.257 0.411 0.642 0.411 1.152v2.083z"></path>
<path fill="#fff" style="fill: var(--color3, #fff)" d="M57.413 10.316h-0.793v-5.073h0.793v5.073z"></path>
<path fill="#fff" style="fill: var(--color3, #fff)" d="M62.088 8.548c0 0.535-0.157 0.973-0.471 1.317-0.329 0.353-0.765 0.53-1.309 0.53-0.525 0-0.943-0.169-1.253-0.508s-0.466-0.766-0.466-1.281c0-0.538 0.16-0.98 0.481-1.323s0.753-0.515 1.296-0.515c0.525 0 0.946 0.169 1.265 0.508 0.303 0.329 0.455 0.754 0.455 1.273zM61.264 8.573c0-0.321-0.071-0.596-0.213-0.825-0.166-0.277-0.404-0.416-0.711-0.416-0.32 0-0.562 0.139-0.728 0.416-0.142 0.229-0.213 0.509-0.213 0.839 0 0.321 0.071 0.596 0.213 0.825 0.172 0.277 0.411 0.416 0.721 0.416 0.303 0 0.54-0.141 0.711-0.423 0.148-0.234 0.221-0.511 0.221-0.832z"></path>
<path fill="#fff" style="fill: var(--color3, #fff)" d="M65.931 10.316h-0.713l-0.059-0.401h-0.022c-0.244 0.319-0.592 0.479-1.043 0.479-0.337 0-0.61-0.106-0.815-0.315-0.186-0.19-0.28-0.427-0.28-0.708 0-0.425 0.182-0.749 0.548-0.973s0.879-0.334 1.54-0.329v-0.065c0-0.458-0.247-0.687-0.742-0.687-0.352 0-0.663 0.086-0.931 0.257l-0.161-0.508c0.332-0.2 0.742-0.3 1.225-0.3 0.933 0 1.402 0.479 1.402 1.438v1.281c0 0.347 0.017 0.624 0.052 0.829zM65.107 9.121v-0.536c-0.876-0.015-1.314 0.219-1.314 0.701 0 0.181 0.050 0.317 0.152 0.408s0.233 0.136 0.388 0.136c0.174 0 0.337-0.054 0.486-0.161s0.241-0.244 0.275-0.412c0.008-0.038 0.013-0.083 0.013-0.136z"></path>
<path fill="#fff" style="fill: var(--color3, #fff)" d="M70.443 10.316h-0.705l-0.037-0.558h-0.022c-0.225 0.425-0.608 0.637-1.147 0.637-0.43 0-0.789-0.165-1.073-0.493s-0.426-0.756-0.426-1.281c0-0.563 0.154-1.019 0.463-1.367 0.299-0.325 0.666-0.487 1.102-0.487 0.48 0 0.815 0.157 1.006 0.472h0.015v-1.996h0.795v4.136c0 0.339 0.009 0.651 0.028 0.937zM69.62 8.849v-0.58c0-0.1-0.008-0.181-0.022-0.243-0.045-0.186-0.141-0.342-0.287-0.468-0.148-0.126-0.326-0.19-0.531-0.19-0.296 0-0.528 0.114-0.699 0.344-0.169 0.229-0.255 0.522-0.255 0.88 0 0.344 0.081 0.623 0.244 0.837 0.172 0.229 0.404 0.343 0.694 0.343 0.261 0 0.469-0.095 0.627-0.286 0.153-0.176 0.228-0.389 0.228-0.637z"></path>
<path fill="#fff" style="fill: var(--color3, #fff)" d="M77.234 8.548c0 0.535-0.157 0.973-0.471 1.317-0.329 0.353-0.764 0.53-1.309 0.53-0.524 0-0.941-0.169-1.253-0.508-0.311-0.339-0.466-0.766-0.466-1.281 0-0.538 0.16-0.98 0.481-1.323s0.753-0.515 1.298-0.515c0.524 0 0.946 0.169 1.264 0.508 0.303 0.329 0.455 0.754 0.455 1.273zM76.412 8.573c0-0.321-0.071-0.596-0.213-0.825-0.167-0.277-0.404-0.416-0.713-0.416-0.318 0-0.561 0.139-0.728 0.416-0.142 0.229-0.213 0.509-0.213 0.839 0 0.321 0.071 0.596 0.213 0.825 0.172 0.277 0.411 0.416 0.721 0.416 0.303 0 0.542-0.141 0.713-0.423 0.146-0.234 0.22-0.511 0.22-0.832z"></path>
<path fill="#fff" style="fill: var(--color3, #fff)" d="M81.504 10.316h-0.793v-1.992c0-0.614-0.239-0.921-0.721-0.921-0.236 0-0.426 0.084-0.573 0.253s-0.221 0.368-0.221 0.596v2.062h-0.795v-2.483c0-0.305-0.009-0.637-0.028-0.995h0.697l0.037 0.544h0.022c0.093-0.169 0.231-0.308 0.411-0.42 0.216-0.13 0.456-0.195 0.721-0.195 0.333 0 0.61 0.105 0.83 0.315 0.275 0.257 0.411 0.642 0.411 1.152v2.083z"></path>
<path fill="#fff" style="fill: var(--color3, #fff)" d="M86.848 7.418h-0.874v1.689c0 0.429 0.155 0.644 0.463 0.644 0.142 0 0.261-0.012 0.354-0.036l0.020 0.586c-0.157 0.057-0.363 0.086-0.617 0.086-0.314 0-0.558-0.093-0.734-0.279s-0.265-0.499-0.265-0.938v-1.753h-0.522v-0.579h0.522v-0.637l0.778-0.229v0.865h0.874v0.58h0.001z"></path>
<path fill="#fff" style="fill: var(--color3, #fff)" d="M91.052 10.316h-0.795v-1.977c0-0.623-0.239-0.935-0.719-0.935-0.368 0-0.62 0.181-0.758 0.542-0.024 0.076-0.037 0.169-0.037 0.278v2.091h-0.793v-5.072h0.793v2.096h0.015c0.25-0.381 0.608-0.572 1.073-0.572 0.329 0 0.601 0.105 0.817 0.315 0.269 0.262 0.404 0.651 0.404 1.166v2.068z"></path>
<path fill="#fff" style="fill: var(--color3, #fff)" d="M95.388 8.413c0 0.139-0.011 0.255-0.030 0.35h-2.381c0.011 0.344 0.124 0.606 0.345 0.787 0.201 0.162 0.461 0.243 0.78 0.243 0.352 0 0.674-0.055 0.963-0.165l0.124 0.537c-0.339 0.143-0.737 0.215-1.199 0.215-0.553 0-0.989-0.159-1.304-0.476-0.317-0.317-0.474-0.743-0.474-1.277 0-0.524 0.146-0.961 0.441-1.309 0.308-0.372 0.724-0.558 1.249-0.558 0.514 0 0.904 0.186 1.168 0.558 0.213 0.295 0.318 0.66 0.318 1.094zM94.63 8.213c0.006-0.229-0.046-0.427-0.154-0.594-0.138-0.215-0.348-0.322-0.632-0.322-0.259 0-0.471 0.105-0.632 0.315-0.132 0.167-0.21 0.367-0.236 0.601h1.653z"></path>
</symbol>
<symbol id="icon-arrow" viewBox="0 0 66 32">
<path fill="#fff" style="fill: var(--color3, #fff)" d="M65.414 17.352c0.781-0.781 0.781-2.047 0-2.828l-12.728-12.728c-0.781-0.781-2.047-0.781-2.828 0s-0.781 2.047 0 2.828l11.314 11.314-11.314 11.314c-0.781 0.781-0.781 2.047 0 2.828s2.047 0.781 2.828 0l12.728-12.728zM0 17.938h64v-4h-64v4z"></path>
</symbol>
<symbol id="icon-delivery-man" viewBox="0 0 32 32">
<path fill="#09a66d" style="fill: var(--color4, #09a66d)" d="M29.929 10.33h-5.294c-0.914 0-1.657 0.744-1.657 1.658v6.094h-1.98c0.11-0.4 0.151-0.872 0.124-1.421v-0c-0.043-2.321-0.464-4.277-1.252-5.813-0.612-1.193-1.325-1.908-1.938-2.336 0.719-0.739 1.134-1.79 1.134-3.003 0-2.182-1.741-3.957-3.88-3.957s-3.88 1.775-3.88 3.957c0 0.253 0.205 0.457 0.457 0.457h0.311c-0.029 0.173-0.044 0.348-0.044 0.527 0 1.538 1.099 2.823 2.551 3.111-0.152 0.565-0.228 1.232-0.228 1.989l-1.141 0.981-2.775 0.224-3.201-1.058c-0.293-0.098-0.626-0.208-0.915 0-0.284 0.205-0.284 0.564-0.284 0.682v2.38c0 0.253 0.205 0.457 0.457 0.457h0.544l-0.835 2.886c-0.070 0.243 0.070 0.496 0.312 0.566s0.496-0.070 0.566-0.312l0.909-3.14h1.3c-1.617 4.931-0.694 8.223 0.724 11.554h-0.822l-3.424-3.828 0.724-2.501c0.070-0.243-0.069-0.496-0.312-0.566s-0.496 0.070-0.566 0.312l-0.692 2.392c-2.142-0.036-4.058 1.441-4.546 3.566-0.057 0.246 0.097 0.491 0.343 0.548l0.649 0.149c-0.166 1.723 0.969 3.348 2.699 3.746 0.263 0.061 0.528 0.090 0.791 0.090 0.649 0 1.287-0.182 1.851-0.535 0.662-0.415 1.155-1.025 1.422-1.745l0.512 0.118c0.153 0.035 0.297 0.053 0.442-0.025 0.135-0.072 0.224-0.203 0.258-0.351 0.032-0.15 0.057-0.302 0.074-0.455h9.565c0.306 1.902 1.924 3.335 3.856 3.335s3.55-1.433 3.856-3.335h0.349c0 0 0.069 0.001 0.085 0.001 0.131 0 0.32-0.015 0.475-0.172 0.078-0.079 0.169-0.22 0.162-0.445-0.013-0.429-0.077-0.844-0.187-1.239 0.364-2.211 0.014-3.558-0.506-4.612 0.328-0.215 0.546-0.586 0.546-1.008v-1.257h2.31c0.914 0 1.657-0.744 1.657-1.658v-5.35c0-0.914-0.743-1.658-1.657-1.658zM6.225 29.411c-0.585 0.367-1.278 0.484-1.951 0.329h-0c-1.238-0.285-2.063-1.42-2.003-2.647l4.961 1.142c-0.205 0.483-0.553 0.892-1.007 1.177zM8.513 27.59l-7.114-1.637c0.549-1.503 2.026-2.498 3.641-2.413l3.485 3.896c-0.003 0.051-0.007 0.102-0.012 0.153zM15.421 19.621c-0.133 0.35-0.133 0.782-0.133 1.379v1.726h-1.675v-2.368c0-2.677 1.461-3.154 2.116-3.232h4.483c-0.018 0.608-0.155 1.039-0.415 1.313-0.303 0.319-0.822 0.475-1.587 0.476l-1.642 0.002c-0.585 0-0.972 0.237-1.149 0.704zM15.288 23.64v1.092c-0.004 0-0.008 0-0.013 0h-3.248c0.037-0.339 0.142-0.601 0.315-0.782 0.258-0.27 0.621-0.31 0.814-0.31h2.132zM20.194 16.211h-4.159c-0.167-0.526-0.316-1.101-0.438-1.692l1.264-0.821c0.69-0.448 1.049-1.082 0.985-1.738-0.057-0.582-0.452-1.101-1.007-1.324-0.507-0.203-1.053-0.139-1.535 0.169 0.040-0.437 0.114-0.828 0.221-1.159 0.195-0.020 0.389-0.058 0.579-0.114 0.387-0.090 0.745-0.233 1.068-0.423 0.881 0.526 2.818 2.233 3.023 7.102zM12.256 5.050c0.216-1.461 1.448-2.585 2.931-2.585 1.635 0 2.965 1.365 2.965 3.042 0 1.364-0.654 2.464-1.709 2.948v-2.406c0-0.417-0.159-0.928-0.919-0.997-0.014-0.001-0.028-0.002-0.042-0.002h-3.227zM12.947 6.492c0-0.181 0.021-0.357 0.061-0.527h2.453c0.028 0.003 0.049 0.006 0.064 0.009 0.002 0.017 0.004 0.041 0.004 0.075v2.675c-0.109 0.016-0.219 0.024-0.328 0.024-0.001 0-0.002 0-0.003 0-1.241-0.001-2.251-1.013-2.251-2.257zM12.354 13.56l1.083-0.088c0.096-0.008 0.188-0.046 0.261-0.109l1.955-1.682c0.189-0.163 0.391-0.246 0.587-0.246 0.087 0 0.174 0.017 0.258 0.050 0.242 0.097 0.413 0.318 0.437 0.563 0.030 0.309-0.173 0.622-0.573 0.882l-2.178 1.414h-1.831v-0.784h-0zM10.421 13.717l1.018-0.082v0.71h-1.183c-0.153 0-0.191-0.127-0.195-0.234-0.002-0.061 0.003-0.365 0.36-0.394zM9.339 13.401c-0.138 0.226-0.202 0.49-0.192 0.747 0.003 0.067 0.011 0.131 0.023 0.193 0 0.001-0.001 0.003-0 0.004h-2.216v-1.736l2.386 0.789c-0.001 0.001-0.001 0.002-0.002 0.004zM10.259 15.259h4.061c0.088 0 0.175-0.026 0.249-0.074l0.207-0.134c0.1 0.44 0.213 0.868 0.336 1.273-0.933 0.275-2.413 1.165-2.413 4.034v2.413c-0.321 0.065-0.7 0.214-1.018 0.547-0.335 0.35-0.526 0.825-0.572 1.414h-0.923c-0.93-2.679-1.283-5.53 0.072-9.473zM11.012 26.812c-0.169-0.389-0.332-0.776-0.485-1.165h4.748c0.615 0 0.927-0.28 0.927-0.833v-3.357h3.61c0.253 0 0.457-0.205 0.457-0.457s-0.205-0.457-0.457-0.457h-3.606c0.006-0.26 0.022-0.472 0.070-0.598 0.023-0.061 0.043-0.114 0.294-0.114l1.642-0.002c1.028-0.001 1.764-0.25 2.249-0.761 0.022-0.024 0.044-0.048 0.065-0.073h6.178v1.257c0 0.157-0.132 0.29-0.289 0.29h-4.553c-0.253 0-0.457 0.205-0.457 0.457s0.205 0.457 0.457 0.457h4.284c0.362 0.671 0.687 1.506 0.667 2.825-0.905-1.257-2.369-2.065-4.032-2.065-1.335 0-2.588 0.524-3.527 1.475-0.834 0.844-1.335 1.939-1.438 3.121l-6.805-0.001zM22.839 30.148c-1.43 0-2.635-1.030-2.927-2.42h5.854c-0.292 1.39-1.498 2.42-2.927 2.42zM26.286 26.813h-7.55c0.225-2.068 1.954-3.681 4.046-3.681 1.837 0 3.381 1.212 3.892 2.908 0.002 0.005 0.003 0.011 0.005 0.016 0.072 0.243 0.123 0.497 0.151 0.758h-0.544zM30.672 17.338c0 0.41-0.333 0.743-0.742 0.743h-6.036v-2.362h6.779v1.618zM30.672 14.805h-6.779v-0.973h6.779v0.973zM30.672 12.918h-6.779v-0.93c0-0.41 0.333-0.743 0.742-0.743h5.294c0.409 0 0.742 0.333 0.742 0.743v0.93z"></path>
</symbol>
<symbol id="icon-facebook" viewBox="0 0 32 32">
<path d="M17.409 11.571v-3.84c0-1.060 0.86-1.92 1.92-1.92h1.92v-4.8h-3.84c-3.181 0-5.76 2.579-5.76 5.76v4.8h-3.84v4.8h3.84v15.36h5.76v-15.36h3.84l1.92-4.8h-5.76z"></path>
</symbol>
<symbol id="icon-array-right" viewBox="0 0 32 32">
<path fill="#fff" style="fill: var(--color3, #fff)" d="M17.802 16.074l-6.4-6.4 1.828-1.828 8.228 8.228-8.228 8.228-1.828-1.828 6.4-6.4z"></path>
</symbol>
<symbol id="icon-star" viewBox="0 0 32 32">
<path fill="#f1b90b" style="fill: var(--color5, #f1b90b)" d="M16.246 23.487l-9.072 5.078 2.026-10.197-7.634-7.059 10.325-1.225 4.355-9.441 4.355 9.441 10.325 1.225-7.634 7.059 2.026 10.197-9.072-5.078z"></path>
</symbol>
<symbol id="icon-star-fiftypr" viewBox="0 0 32 32">
<path fill="#f1b90b" style="fill: var(--color5, #f1b90b)" d="M16.566 20.539l5.463 3.057-1.221-6.139 4.596-4.251-6.216-0.737-2.621-5.684v13.754zM16.566 23.487l-9.072 5.078 2.026-10.197-7.634-7.059 10.325-1.225 4.355-9.441 4.355 9.441 10.325 1.225-7.634 7.059 2.026 10.197-9.072-5.078z"></path>
</symbol>
<symbol id="icon-array-left" viewBox="0 0 32 32">
<path fill="#ccc" style="fill: var(--color6, #ccc)" d="M14.387 16.074l6.4 6.4-1.828 1.828-8.228-8.228 8.228-8.228 1.828 1.828-6.4 6.4z"></path>
</symbol>
<symbol id="icon-google-play" viewBox="0 0 108 32">
<path fill="#000" style="fill: var(--color1, #000)" d="M104.221 0.049h-99.403c-2.196 0-3.976 1.733-3.976 3.871v23.226c0 2.138 1.78 3.871 3.976 3.871h99.403c2.196 0 3.975-1.733 3.975-3.871v-23.226c0-2.138-1.78-3.871-3.975-3.871z"></path>
<path fill="#a6a6a6" style="fill: var(--color2, #a6a6a6)" d="M104.221 0.668c0.886 0 1.735 0.343 2.361 0.952 0.627 0.61 0.979 1.437 0.979 2.299v23.226c0 0.862-0.352 1.689-0.979 2.299-0.626 0.61-1.475 0.952-2.361 0.952h-99.403c-0.886 0-1.735-0.343-2.362-0.952s-0.978-1.437-0.978-2.299v-23.226c0-0.862 0.352-1.689 0.978-2.299s1.476-0.952 2.362-0.952h99.403zM104.221 0.049h-99.403c-1.055 0-2.066 0.408-2.812 1.134s-1.165 1.711-1.165 2.737v23.226c0 1.027 0.419 2.011 1.165 2.737s1.757 1.134 2.812 1.134h99.403c1.054 0 2.066-0.408 2.811-1.134 0.746-0.726 1.164-1.711 1.164-2.737v-23.226c0-1.027-0.418-2.011-1.164-2.737-0.745-0.726-1.757-1.134-2.811-1.134z"></path>
<path fill="#fff" style="fill: var(--color3, #fff)" d="M55.028 16.887c-0.668 0.003-1.32 0.199-1.873 0.562s-0.984 0.878-1.238 1.48c-0.253 0.602-0.318 1.263-0.186 1.9s0.455 1.222 0.929 1.681c0.473 0.459 1.075 0.77 1.731 0.896s1.334 0.060 1.951-0.19c0.617-0.25 1.144-0.671 1.514-1.212s0.568-1.176 0.568-1.826c0.007-0.435-0.077-0.867-0.246-1.27s-0.419-0.769-0.736-1.076c-0.317-0.307-0.694-0.549-1.109-0.711s-0.859-0.242-1.306-0.233zM55.028 22.175c-0.411 0.028-0.82-0.065-1.176-0.267s-0.641-0.503-0.818-0.865c-0.177-0.362-0.239-0.767-0.177-1.163s0.246-0.765 0.526-1.058c0.28-0.293 0.645-0.498 1.046-0.587s0.821-0.059 1.204 0.088c0.383 0.146 0.713 0.401 0.945 0.732s0.357 0.722 0.358 1.123c0.013 0.254-0.027 0.508-0.116 0.747s-0.227 0.458-0.405 0.644c-0.178 0.186-0.392 0.336-0.63 0.44s-0.495 0.161-0.757 0.167zM47.625 16.887c-0.668 0.002-1.321 0.196-1.876 0.558s-0.987 0.877-1.241 1.478-0.32 1.263-0.189 1.9c0.131 0.638 0.454 1.223 0.927 1.683s1.075 0.772 1.73 0.898 1.335 0.061 1.952-0.189c0.617-0.249 1.144-0.671 1.515-1.212s0.569-1.177 0.569-1.827c0.007-0.435-0.077-0.867-0.246-1.27s-0.419-0.769-0.735-1.076c-0.317-0.307-0.694-0.549-1.109-0.711s-0.859-0.242-1.306-0.233h0.008zM47.625 22.175c-0.411 0.030-0.821-0.062-1.178-0.263s-0.643-0.501-0.822-0.863c-0.179-0.361-0.241-0.767-0.18-1.163s0.244-0.766 0.524-1.060c0.28-0.294 0.644-0.5 1.046-0.589s0.822-0.060 1.205 0.086c0.384 0.146 0.714 0.401 0.946 0.732s0.358 0.722 0.359 1.123c0.013 0.254-0.027 0.508-0.116 0.747s-0.227 0.458-0.405 0.644c-0.178 0.186-0.392 0.336-0.63 0.44s-0.495 0.161-0.757 0.167h0.008zM38.805 17.902v1.394h3.435c-0.054 0.656-0.334 1.276-0.795 1.757-0.344 0.341-0.757 0.608-1.213 0.784s-0.945 0.257-1.435 0.238c-1.012 0-1.983-0.392-2.699-1.088s-1.118-1.642-1.118-2.628 0.402-1.931 1.118-2.628c0.716-0.697 1.687-1.088 2.699-1.088 0.968-0.015 1.904 0.344 2.6 0.999l1.010-0.983c-0.47-0.464-1.032-0.831-1.65-1.079s-1.283-0.374-1.952-0.368c-0.707-0.027-1.412 0.086-2.073 0.331s-1.265 0.617-1.775 1.095c-0.51 0.477-0.916 1.050-1.193 1.684s-0.42 1.315-0.42 2.004c0 0.689 0.143 1.37 0.42 2.004s0.683 1.206 1.193 1.684c0.51 0.477 1.114 0.85 1.775 1.095s1.367 0.357 2.073 0.331c0.681 0.030 1.36-0.082 1.992-0.329s1.203-0.623 1.674-1.103c0.833-0.891 1.278-2.063 1.24-3.267 0.003-0.293-0.024-0.586-0.079-0.875l-4.827 0.039zM74.837 18.985c-0.207-0.594-0.595-1.113-1.112-1.487s-1.139-0.588-1.782-0.611c-0.435-0.001-0.866 0.085-1.265 0.253s-0.759 0.413-1.058 0.722c-0.298 0.308-0.528 0.673-0.676 1.071s-0.21 0.822-0.183 1.245c-0.010 0.433 0.070 0.863 0.235 1.265s0.411 0.767 0.725 1.074c0.313 0.307 0.687 0.55 1.099 0.713s0.853 0.244 1.297 0.238c0.556 0.003 1.105-0.129 1.596-0.383s0.91-0.623 1.219-1.073l-1.153-0.774c-0.172 0.279-0.416 0.51-0.707 0.67s-0.62 0.244-0.955 0.243c-0.344 0.013-0.685-0.076-0.977-0.254s-0.522-0.438-0.661-0.745l4.525-1.819-0.167-0.348zM70.225 20.085c-0.016-0.239 0.017-0.48 0.097-0.706s0.206-0.436 0.371-0.615 0.364-0.324 0.587-0.427c0.223-0.103 0.464-0.161 0.71-0.172 0.257-0.016 0.512 0.041 0.736 0.165s0.404 0.309 0.521 0.532l-3.022 1.223zM66.551 23.275h1.487v-9.677h-1.487v9.677zM64.117 17.623h-0.056c-0.224-0.244-0.499-0.439-0.806-0.573s-0.639-0.202-0.976-0.202c-0.869 0.041-1.689 0.406-2.289 1.019s-0.935 1.428-0.935 2.275c0 0.847 0.335 1.662 0.935 2.275s1.42 0.978 2.289 1.019c0.337 0.006 0.671-0.061 0.979-0.195s0.582-0.332 0.802-0.579h0.048v0.472c0 1.262-0.692 1.935-1.805 1.935-0.371-0.008-0.731-0.124-1.034-0.332s-0.536-0.5-0.668-0.837l-1.296 0.526c0.244 0.578 0.66 1.071 1.194 1.418s1.162 0.529 1.804 0.526c1.742 0 3.181-0.999 3.181-3.43v-5.861h-1.368v0.542zM62.416 22.175c-0.513-0.044-0.99-0.273-1.338-0.643s-0.541-0.853-0.541-1.354c0-0.501 0.193-0.984 0.541-1.354s0.825-0.599 1.338-0.643c0.254 0.013 0.504 0.075 0.733 0.183s0.434 0.259 0.602 0.446c0.168 0.186 0.296 0.403 0.377 0.638s0.112 0.484 0.093 0.731c0.022 0.248-0.009 0.498-0.089 0.735s-0.209 0.455-0.379 0.641c-0.169 0.187-0.376 0.338-0.607 0.445s-0.482 0.167-0.738 0.176h0.008zM81.803 13.597h-3.555v9.677h1.487v-3.67h2.076c0.424 0.030 0.849-0.026 1.25-0.163s0.768-0.354 1.079-0.636c0.311-0.282 0.559-0.623 0.729-1.002s0.257-0.788 0.257-1.202c0-0.414-0.088-0.823-0.257-1.202s-0.418-0.721-0.729-1.002c-0.311-0.282-0.678-0.498-1.079-0.636s-0.826-0.193-1.25-0.164h-0.008zM81.803 18.242h-2.076v-3.298h2.107c0.452 0 0.886 0.175 1.206 0.486s0.5 0.734 0.5 1.174c0 0.44-0.18 0.863-0.5 1.174s-0.754 0.486-1.206 0.486l-0.032-0.023zM90.972 16.849c-0.541-0.031-1.080 0.092-1.551 0.354s-0.852 0.654-1.097 1.124l1.32 0.534c0.13-0.233 0.327-0.425 0.567-0.552s0.513-0.182 0.785-0.161c0.189-0.021 0.38-0.006 0.563 0.045s0.353 0.137 0.501 0.254c0.148 0.116 0.271 0.26 0.361 0.422s0.147 0.341 0.165 0.526v0.101c-0.478-0.246-1.010-0.374-1.551-0.372-1.423 0-2.863 0.774-2.863 2.175 0.014 0.299 0.090 0.592 0.222 0.862s0.319 0.511 0.549 0.71c0.23 0.198 0.498 0.35 0.789 0.446s0.599 0.134 0.905 0.112c0.374 0.026 0.749-0.046 1.085-0.21s0.62-0.412 0.823-0.719h0.048v0.774h1.431v-3.724c0-1.695-1.32-2.679-3.014-2.679l-0.040-0.023zM90.789 22.152c-0.485 0-1.161-0.24-1.161-0.821 0-0.774 0.843-1.030 1.591-1.030 0.472-0.011 0.939 0.101 1.352 0.325-0.050 0.419-0.253 0.807-0.573 1.091s-0.735 0.447-1.168 0.457l-0.040-0.023zM99.242 17.081l-1.702 4.196h-0.048l-1.765-4.196h-1.591l2.648 5.868-1.511 3.259h1.551l4.072-9.128h-1.654zM85.875 23.275h1.487v-9.677h-1.487v9.677z"></path>
<path fill="#fff" style="fill: var(--color3, #fff)" d="M38.501 8.025c0.014 0.284-0.032 0.568-0.135 0.834s-0.26 0.509-0.462 0.715c-0.225 0.228-0.498 0.407-0.799 0.526s-0.625 0.174-0.95 0.163c-0.493-0.004-0.974-0.149-1.383-0.418s-0.727-0.649-0.914-1.093c-0.188-0.444-0.237-0.932-0.141-1.403s0.333-0.904 0.68-1.244c0.228-0.227 0.502-0.406 0.805-0.526s0.627-0.178 0.953-0.171c0.336-0.001 0.669 0.065 0.978 0.194 0.288 0.113 0.544 0.291 0.747 0.519l-0.421 0.41c-0.159-0.184-0.359-0.329-0.586-0.425s-0.472-0.138-0.719-0.125c-0.248-0.001-0.494 0.046-0.724 0.14s-0.436 0.231-0.609 0.405-0.308 0.379-0.398 0.605c-0.089 0.226-0.131 0.466-0.122 0.708-0.005 0.361 0.099 0.715 0.301 1.018s0.49 0.541 0.831 0.684c0.34 0.143 0.716 0.185 1.081 0.121s0.702-0.233 0.968-0.484c0.245-0.258 0.386-0.593 0.398-0.945h-1.726v-0.557h2.314c0.021 0.115 0.032 0.232 0.032 0.348zM42.144 6.089h-2.147v1.471h1.956v0.557h-1.956v1.471h2.147v0.573h-2.783v-4.645h2.783v0.573zM44.752 10.162h-0.612v-4.072h-1.336v-0.573h3.316v0.573h-1.368v4.072zM48.458 10.162v-4.645h0.612v4.645h-0.612zM51.79 10.162h-0.612v-4.072h-1.336v-0.573h3.276v0.573h-1.328v4.072zM59.328 9.558c-0.465 0.45-1.094 0.703-1.749 0.703s-1.285-0.253-1.749-0.703c-0.452-0.466-0.704-1.082-0.704-1.723s0.252-1.257 0.704-1.723c0.229-0.225 0.502-0.403 0.802-0.525s0.622-0.184 0.947-0.184c0.325 0 0.647 0.063 0.947 0.184s0.573 0.3 0.802 0.525c0.454 0.465 0.707 1.081 0.707 1.723s-0.253 1.258-0.707 1.723zM56.283 9.171c0.344 0.334 0.81 0.521 1.296 0.521s0.952-0.187 1.296-0.521c0.34-0.365 0.528-0.839 0.528-1.332s-0.188-0.967-0.528-1.332c-0.344-0.334-0.81-0.521-1.296-0.521s-0.952 0.187-1.296 0.521c-0.34 0.365-0.528 0.839-0.528 1.332s0.188 0.967 0.528 1.332zM60.895 10.162v-4.645h0.747l2.322 3.615v-3.615h0.612v4.645h-0.636l-2.425-3.786v3.786h-0.62z"></path>
<path fill="#fff" style="fill: var(--color3, #fff)" d="M57.579 5.481c-0.315 0-0.626 0.061-0.917 0.178s-0.554 0.29-0.775 0.507c-0.437 0.451-0.681 1.048-0.681 1.669s0.244 1.217 0.681 1.669c0.45 0.435 1.058 0.679 1.693 0.679s1.243-0.244 1.693-0.679c0.439-0.45 0.684-1.047 0.684-1.668s-0.245-1.218-0.684-1.669c-0.222-0.217-0.485-0.39-0.776-0.507s-0.602-0.178-0.917-0.178zM56.601 5.516c0.31-0.126 0.642-0.19 0.978-0.19s0.668 0.065 0.978 0.19c0.31 0.126 0.591 0.31 0.828 0.542l0.001 0.001c0.468 0.479 0.728 1.115 0.728 1.776s-0.261 1.297-0.728 1.776l-0.002 0.002c-0.48 0.464-1.129 0.725-1.806 0.725s-1.326-0.261-1.806-0.725l-0.002-0.002c-0.466-0.48-0.725-1.115-0.725-1.776s0.26-1.296 0.725-1.776l0.001-0.001c0.236-0.232 0.518-0.416 0.828-0.542zM36.154 5.485c-0.315-0.007-0.629 0.049-0.921 0.165s-0.557 0.289-0.778 0.508l-0 0c-0.337 0.33-0.566 0.749-0.658 1.205s-0.046 0.928 0.136 1.358c0.182 0.43 0.49 0.798 0.885 1.058s0.861 0.401 1.339 0.405l0.002 0c0.314 0.011 0.626-0.043 0.917-0.157s0.554-0.288 0.772-0.508c0.194-0.198 0.346-0.432 0.444-0.688s0.143-0.53 0.13-0.803l0.079-0.004-0.079-0c0-0.091-0.007-0.181-0.020-0.271h-2.167v0.403h1.728l-0.003 0.080c-0.012 0.37-0.161 0.723-0.419 0.995l-0.003 0.003c-0.278 0.261-0.629 0.437-1.009 0.504s-0.772 0.024-1.127-0.126c-0.355-0.149-0.656-0.398-0.866-0.713s-0.319-0.684-0.314-1.059c-0.009-0.251 0.035-0.502 0.128-0.737s0.234-0.45 0.415-0.631c0.181-0.181 0.397-0.325 0.636-0.422s0.494-0.147 0.752-0.146c0.258-0.013 0.515 0.032 0.752 0.132 0.211 0.089 0.401 0.219 0.557 0.383l0.308-0.3c-0.187-0.193-0.414-0.345-0.668-0.444l-0.002-0.001c-0.299-0.125-0.621-0.188-0.947-0.187l-0.002-0zM38.581 8.023c0.014 0.294-0.034 0.587-0.14 0.863s-0.269 0.528-0.479 0.741c-0.233 0.236-0.515 0.421-0.827 0.544s-0.646 0.18-0.982 0.169c-0.508-0.004-1.004-0.154-1.425-0.431s-0.75-0.669-0.943-1.127c-0.194-0.458-0.244-0.961-0.145-1.447s0.343-0.932 0.701-1.284c0.236-0.234 0.519-0.419 0.831-0.543s0.647-0.184 0.984-0.177c0.346-0.001 0.689 0.067 1.008 0.199 0.299 0.118 0.565 0.302 0.777 0.539l0.049 0.054-0.535 0.521-0.056-0.065c-0.151-0.175-0.341-0.313-0.556-0.403s-0.449-0.131-0.683-0.119l-0.005 0c-0.238-0.001-0.473 0.044-0.692 0.134s-0.417 0.221-0.583 0.387c-0.166 0.166-0.295 0.363-0.38 0.579s-0.125 0.446-0.117 0.678l0 0.004c-0.005 0.346 0.095 0.685 0.288 0.975s0.47 0.518 0.795 0.655c0.326 0.137 0.686 0.177 1.035 0.115s0.67-0.222 0.925-0.462c0.212-0.225 0.342-0.511 0.37-0.813h-1.721v-0.712h2.46l0.012 0.064c0.022 0.119 0.033 0.239 0.033 0.36zM39.281 5.439h2.942v0.728h-2.147v1.316h1.956v0.712h-1.956v1.316h2.147v0.728h-2.942v-4.8zM39.44 5.594v4.49h2.624v-0.418h-2.147v-1.626h1.956v-0.403h-1.956v-1.626h2.147v-0.418h-2.624zM42.724 5.439h3.475v0.728h-1.368v4.072h-0.771v-4.072h-1.336v-0.728zM42.883 5.594v0.418h1.336v4.072h0.453v-4.072h1.368v-0.418h-3.157zM48.378 5.439h0.771v4.8h-0.771v-4.8zM48.537 5.594v4.49h0.453v-4.49h-0.453zM49.762 5.439h3.435v0.728h-1.328v4.072h-0.771v-4.072h-1.336v-0.728zM49.921 5.594v0.418h1.336v4.072h0.453v-4.072h1.328v-0.418h-3.117zM60.815 5.439h0.871l2.198 3.423v-3.423h0.771v4.8h-0.76l-2.302-3.593v3.593h-0.779v-4.8zM60.974 5.594v4.49h0.461v-3.979l2.549 3.979h0.513v-4.49h-0.453v3.808l-2.446-3.808h-0.624zM56.226 6.453c0.359-0.348 0.846-0.544 1.352-0.544s0.993 0.196 1.352 0.544l0.003 0.003c0.353 0.379 0.549 0.872 0.549 1.384s-0.196 1.005-0.549 1.384l-0.003 0.003c-0.359 0.348-0.845 0.544-1.352 0.544s-0.993-0.196-1.352-0.544l0.056-0.055-0.059 0.052c-0.353-0.379-0.549-0.872-0.549-1.384s0.196-1.005 0.549-1.384l0.003-0.003zM56.34 9.117c0.329 0.318 0.775 0.497 1.239 0.497s0.909-0.179 1.239-0.497c0.326-0.35 0.506-0.806 0.506-1.278s-0.18-0.928-0.506-1.278c-0.329-0.318-0.775-0.497-1.239-0.497s-0.909 0.179-1.239 0.497c-0.326 0.35-0.506 0.806-0.506 1.278s0.18 0.928 0.506 1.278z"></path>
<path fill="#000" style="fill: var(--color1, #000)" d="M9.144 5.886c-0.259 0.303-0.39 0.69-0.366 1.084v17.125c-0.024 0.393 0.107 0.781 0.366 1.084l0.056 0.054 9.853-9.585v-0.225l-9.853-9.592-0.056 0.054z"></path>
<path fill="#000" style="fill: var(--color1, #000)" d="M22.313 18.846l-3.261-3.197v-0.225l3.261-3.205 0.072 0.039 3.905 2.16c1.113 0.612 1.113 1.618 0 2.237l-3.889 2.152-0.087 0.039z"></path>
<path fill="#000" style="fill: var(--color1, #000)" d="M22.408 18.8l-3.356-3.267-9.908 9.646c0.227 0.194 0.516 0.305 0.818 0.314s0.598-0.086 0.836-0.267l11.618-6.426z"></path>
<path fill="#000" style="fill: var(--color1, #000)" d="M22.408 12.265l-11.618-6.426c-0.238-0.181-0.534-0.276-0.836-0.267s-0.591 0.119-0.818 0.314l9.916 9.646 3.356-3.267z"></path>
<path fill="#000" style="fill: var(--color1, #000)" opacity="0.2" d="M22.313 18.73l-11.523 6.387c-0.23 0.167-0.509 0.257-0.795 0.257s-0.566-0.090-0.795-0.257l-0.056 0.054 0.056 0.054c0.229 0.168 0.508 0.259 0.795 0.259s0.566-0.091 0.795-0.259l11.618-6.426-0.095-0.070z"></path>
<path fill="#000" style="fill: var(--color1, #000)" opacity="0.12" d="M9.144 25.071c-0.259-0.303-0.39-0.69-0.366-1.084v0.116c-0.024 0.393 0.107 0.781 0.366 1.084l0.056-0.054-0.056-0.062zM26.289 16.539l-3.976 2.191 0.072 0.070 3.905-2.152c0.222-0.101 0.412-0.258 0.551-0.453s0.224-0.424 0.244-0.661c-0.045 0.216-0.14 0.419-0.277 0.593s-0.315 0.316-0.518 0.413z"></path>
<path fill="#fff" style="fill: var(--color3, #fff)" opacity="0.25" d="M10.79 5.948l15.499 8.578c0.203 0.097 0.38 0.239 0.518 0.413s0.233 0.377 0.277 0.593c-0.020-0.237-0.104-0.466-0.244-0.661s-0.33-0.352-0.551-0.453l-15.499-8.578c-1.113-0.612-2.020-0.101-2.020 1.138v0.116c0.024-1.246 0.915-1.757 2.020-1.146z"></path>
</symbol>
<symbol id="icon-twitter" viewBox="0 0 40 32">
<path d="M38.561 3.757c-1.428 0.626-2.95 1.042-4.536 1.243 1.632-0.974 2.878-2.506 3.463-4.351-1.522 0.907-3.202 1.548-4.992 1.906-1.445-1.538-3.504-2.491-5.75-2.491-4.358 0-7.867 3.538-7.867 7.874 0 0.624 0.053 1.224 0.182 1.795-6.545-0.319-12.336-3.456-16.226-8.234-0.679 1.178-1.078 2.527-1.078 3.979 0 2.726 1.404 5.143 3.497 6.542-1.265-0.024-2.506-0.391-3.557-0.97 0 0.024 0 0.055 0 0.086 0 3.826 2.729 7.003 6.307 7.735-0.641 0.175-1.339 0.259-2.064 0.259-0.504 0-1.013-0.029-1.49-0.134 1.020 3.118 3.914 5.41 7.356 5.484-2.678 2.095-6.079 3.358-9.761 3.358-0.646 0-1.265-0.029-1.884-0.108 3.487 2.249 7.62 3.533 12.077 3.533 14.486 0 22.406-12 22.406-22.402 0-0.348-0.012-0.684-0.029-1.018 1.562-1.109 2.875-2.494 3.946-4.087z"></path>
</symbol>
<symbol id="icon-produkte" viewBox="0 0 32 32">
<path fill="#09a66d" style="fill: var(--color4, #09a66d)" d="M22.904 9.6h1.546c1.288 0 2.365-0.918 2.613-2.133h-1.546c-1.287 0-2.365 0.918-2.613 2.133z"></path>
<path fill="#09a66d" style="fill: var(--color4, #09a66d)" d="M10.667 4.8c0.053 0 0.104 0.006 0.157 0.008l0.374-3.744c0.002-0.314-0.214-0.531-0.481-0.531h-0.101c-0.267 0-0.483 0.217-0.483 0.483l0.377 3.792c0.052-0.002 0.103-0.008 0.156-0.008z"></path>
<path fill="#09a66d" style="fill: var(--color4, #09a66d)" d="M6.4 16c0-0.182 0.019-0.359 0.048-0.533h-1.115v0.365c0.399 0.19 0.761 0.447 1.067 0.76v-0.592z"></path>
<path fill="#09a66d" style="fill: var(--color4, #09a66d)" d="M5.968 2.963l1.825 2.686c0.143-0.092 0.291-0.178 0.443-0.256l-1.097-3.017c-0.008-0.021-0.016-0.041-0.026-0.060-0.075-0.15-0.195-0.254-0.343-0.303s-0.307-0.038-0.446 0.032l-0.133 0.067c-0.289 0.144-0.406 0.496-0.261 0.785 0.012 0.021 0.026 0.045 0.041 0.068z"></path>
<path fill="#09a66d" style="fill: var(--color4, #09a66d)" d="M8.204 14.4h5.94l0.7-3.358c0.059-0.286 0.090-0.579 0.090-0.87 0-2.391-1.914-4.305-4.267-4.305s-4.267 1.914-4.267 4.267c0 0.33 0.030 0.623 0.090 0.909l0.617 2.958c0.587-0.731 1.486-1.2 2.494-1.2v1.067c-0.536 0-1.021 0.205-1.396 0.533zM12.267 8h1.067v1.067h-1.067v-1.067zM12.267 10.133h1.067v1.067h-1.067v-1.067zM12.267 12.267h1.067v1.067h-1.067v-1.067z"></path>
<path fill="#09a66d" style="fill: var(--color4, #09a66d)" d="M4.8 18.667h1.546c-0.248-1.215-1.325-2.133-2.613-2.133h-1.546c0.247 1.215 1.325 2.133 2.613 2.133z"></path>
<path fill="#09a66d" style="fill: var(--color4, #09a66d)" d="M15.366 2.962c0.014-0.021 0.028-0.045 0.040-0.069 0.143-0.286 0.026-0.638-0.262-0.782l-0.133-0.067c-0.14-0.069-0.297-0.082-0.446-0.032-0.148 0.050-0.268 0.154-0.338 0.293-0.015 0.030-0.023 0.050-0.031 0.070l-1.097 3.017c0.152 0.078 0.3 0.164 0.443 0.256l1.825-2.686z"></path>
<path fill="#09a66d" style="fill: var(--color4, #09a66d)" d="M14.392 25.067h14.942v-3.2h-15.652c0.471 0.99 0.71 2.079 0.71 3.2zM27.2 22.933h1.067v1.067h-1.067v-1.067z"></path>
<path fill="#09a66d" style="fill: var(--color4, #09a66d)" d="M13.047 29.333h14.686c0.882 0 1.6-0.718 1.6-1.6v-1.6h-15.010c-0.17 1.175-0.619 2.265-1.276 3.2zM27.2 27.2h1.067v1.067h-1.067v-1.067z"></path>
<path fill="#09a66d" style="fill: var(--color4, #09a66d)" d="M7.542 15.467c-0.045 0.172-0.076 0.348-0.076 0.533v0.533h24v-1.067h-23.924z"></path>
<path fill="#09a66d" style="fill: var(--color4, #09a66d)" d="M7.467 19.129c0.107-0.026 0.214-0.053 0.312-0.095 1.627-0.696 3.52-0.278 4.707 1.042 0.207 0.23 0.393 0.474 0.567 0.724h16.281v-3.2h-21.867v1.53zM27.2 18.667h1.067v1.067h-1.067v-1.067z"></path>
<path fill="#09a66d" style="fill: var(--color4, #09a66d)" d="M11.693 20.789c-0.868-0.965-2.306-1.285-3.495-0.775-0.229 0.098-0.476 0.165-0.732 0.206v1.004c0.53-0.197 1.033-0.613 1.223-0.803l0.754 0.755c-0.125 0.125-1.259 1.223-2.51 1.223s-2.386-1.098-2.51-1.223l0.754-0.755c0.191 0.189 0.694 0.605 1.223 0.803v-1.491h-1.6c-0.181 0-0.357-0.017-0.531-0.042-0.748 0.053-1.538 0.471-2.121 1.125-1.042 1.172-1.615 2.681-1.615 4.25 0 1.756 0.698 3.394 1.963 4.612s2.922 1.846 4.692 1.783c3.297-0.127 5.993-2.809 6.139-6.105 0.074-1.691-0.506-3.314-1.634-4.568zM6.933 30.4c-2.941 0-5.333-2.393-5.333-5.333h1.067c0 2.353 1.914 4.267 4.267 4.267v1.067z"></path>
<path fill="#09a66d" style="fill: var(--color4, #09a66d)" d="M27.078 14.4c-0.255-0.991-0.742-1.908-1.434-2.677-0.869-0.965-2.306-1.284-3.495-0.775-0.091 0.039-0.186 0.071-0.282 0.102v-4.65c0-0.882 0.718-1.6 1.6-1.6h0.533v-1.067h-0.533c-1.47 0-2.667 1.196-2.667 2.667v4.65c-0.096-0.030-0.191-0.063-0.282-0.102-1.189-0.509-2.627-0.19-3.495 0.775-0.692 0.77-1.179 1.686-1.434 2.677h11.489zM18.937 11.807c0.008 0.004 0.815 0.46 2.396 0.46s2.388-0.455 2.396-0.46l0.545 0.917c-0.041 0.025-1.037 0.61-2.941 0.61s-2.9-0.585-2.941-0.61l0.545-0.917z"></path>
</symbol>
<symbol id="icon-time" viewBox="0 0 42 32">
<path fill="#09a66d" style="fill: var(--color4, #09a66d)" d="M3.62 7.794h6.379c0.334 0 0.605-0.271 0.605-0.605s-0.271-0.605-0.605-0.605h-6.379c-0.334 0-0.605 0.271-0.605 0.605s0.271 0.605 0.605 0.605z"></path>
<path fill="#09a66d" style="fill: var(--color4, #09a66d)" d="M9.78 10.706h-2.52c-0.334 0-0.605 0.271-0.605 0.605s0.271 0.605 0.605 0.605h2.52c0.334 0 0.605-0.271 0.605-0.605s-0.271-0.605-0.605-0.605z"></path>
<path fill="#09a66d" style="fill: var(--color4, #09a66d)" d="M1.090 14.9h6.17c0.334 0 0.605-0.271 0.605-0.605s-0.271-0.605-0.605-0.605h-6.17c-0.334 0-0.605 0.271-0.605 0.605s0.271 0.605 0.605 0.605z"></path>
<path fill="#09a66d" style="fill: var(--color4, #09a66d)" d="M10.604 25.623c0-0.334-0.271-0.605-0.605-0.605h-6.379c-0.334 0-0.605 0.271-0.605 0.605s0.271 0.605 0.605 0.605h6.379c0.334 0 0.605-0.271 0.605-0.605z"></path>
<path fill="#09a66d" style="fill: var(--color4, #09a66d)" d="M9.78 20.897h-2.52c-0.334 0-0.605 0.271-0.605 0.605s0.271 0.605 0.605 0.605h2.52c0.334 0 0.605-0.271 0.605-0.605s-0.271-0.605-0.605-0.605z"></path>
<path fill="#09a66d" style="fill: var(--color4, #09a66d)" d="M7.865 18.517c0-0.334-0.271-0.605-0.605-0.605h-6.17c-0.334 0-0.605 0.271-0.605 0.605s0.271 0.605 0.605 0.605h6.17c0.334 0 0.605-0.271 0.605-0.605z"></path>
<path fill="#09a66d" style="fill: var(--color4, #09a66d)" d="M26.253 9.134c0.334 0 0.605-0.271 0.605-0.605v-0.923c0-0.334-0.271-0.605-0.605-0.605s-0.605 0.271-0.605 0.605v0.923c0 0.334 0.271 0.605 0.605 0.605z"></path>
<path fill="#09a66d" style="fill: var(--color4, #09a66d)" d="M32.904 9.756c-0.236-0.236-0.619-0.236-0.855 0l-0.653 0.653c-0.236 0.236-0.236 0.619 0 0.855s0.619 0.236 0.855 0l0.653-0.653c0.236-0.236 0.236-0.619 0-0.855z"></path>
<path fill="#09a66d" style="fill: var(--color4, #09a66d)" d="M34.129 15.801c-0.334 0-0.605 0.271-0.605 0.605s0.271 0.605 0.605 0.605h0.923c0.334 0 0.605-0.271 0.605-0.605s-0.271-0.605-0.605-0.605h-0.923z"></path>
<path fill="#09a66d" style="fill: var(--color4, #09a66d)" d="M32.251 21.548c-0.236-0.236-0.619-0.236-0.855 0s-0.236 0.619 0 0.855l0.653 0.653c0.236 0.236 0.619 0.236 0.855 0s0.236-0.619 0-0.855l-0.653-0.653z"></path>
<path fill="#09a66d" style="fill: var(--color4, #09a66d)" d="M25.648 24.283v0.923c0 0.334 0.271 0.605 0.605 0.605s0.605-0.271 0.605-0.605v-0.923c0-0.334-0.271-0.605-0.605-0.605s-0.605 0.271-0.605 0.605z"></path>
<path fill="#09a66d" style="fill: var(--color4, #09a66d)" d="M20.256 21.548l-0.653 0.653c-0.236 0.236-0.236 0.619 0 0.855s0.619 0.236 0.855 0l0.653-0.653c0.236-0.236 0.236-0.619 0-0.855s-0.619-0.236-0.855 0z"></path>
<path fill="#09a66d" style="fill: var(--color4, #09a66d)" d="M17.453 15.801c-0.334 0-0.605 0.271-0.605 0.605s0.271 0.605 0.605 0.605h0.923c0.334 0 0.605-0.271 0.605-0.605s-0.271-0.605-0.605-0.605h-0.923z"></path>
<path fill="#09a66d" style="fill: var(--color4, #09a66d)" d="M21.112 10.409l-0.653-0.653c-0.236-0.236-0.619-0.236-0.855 0s-0.236 0.619 0 0.855l0.653 0.653c0.236 0.236 0.619 0.236 0.855 0s0.236-0.619 0-0.855z"></path>
<path fill="#09a66d" style="fill: var(--color4, #09a66d)" d="M29.506 16.406c0-0.334-0.271-0.605-0.605-0.605h-2.043v-4.491c0-0.334-0.271-0.605-0.605-0.605s-0.605 0.271-0.605 0.605v5.096c0 0.334 0.271 0.605 0.605 0.605h2.648c0.334 0 0.605-0.271 0.605-0.605z"></path>
<path fill="#09a66d" style="fill: var(--color4, #09a66d)" d="M37.722 16.306c0.333-0.020 0.587-0.307 0.567-0.64-0.385-6.347-5.672-11.319-12.036-11.319-6.649 0-12.059 5.41-12.059 12.059s5.41 12.059 12.059 12.059c5.957 0 11.040-4.365 11.925-10.255 0.050-0.33-0.178-0.638-0.508-0.688s-0.638 0.178-0.688 0.508c-0.794 5.291-5.363 9.225-10.728 9.225-5.982 0-10.849-4.867-10.849-10.849s4.867-10.849 10.849-10.849c5.726 0 10.482 4.473 10.828 10.182 0.020 0.333 0.307 0.586 0.64 0.567z"></path>
<path fill="#09a66d" style="fill: var(--color4, #09a66d)" d="M26.254 0.884c-2.127 0-4.212 0.441-6.13 1.267h-10.672c-0.334 0-0.605 0.271-0.605 0.605s0.271 0.605 0.605 0.605h8.396c-1.135 0.731-2.18 1.612-3.102 2.629-0.224 0.247-0.205 0.63 0.042 0.854s0.63 0.205 0.854-0.042c2.71-2.992 6.578-4.708 10.611-4.708 7.892 0 14.312 6.42 14.312 14.312s-6.42 14.312-14.312 14.312c-7.892 0-14.312-6.42-14.312-14.312 0-2.764 0.789-5.446 2.283-7.757 0.181-0.281 0.101-0.655-0.18-0.836s-0.655-0.101-0.836 0.18c-1.62 2.507-2.476 5.416-2.476 8.413 0 5.465 2.839 10.279 7.12 13.045h-8.4c-0.334 0-0.605 0.271-0.605 0.605s0.271 0.605 0.605 0.605h10.663c1.884 0.814 3.959 1.267 6.139 1.267 8.559 0 15.522-6.963 15.522-15.522s-6.963-15.522-15.522-15.522z"></path>
</symbol>
<symbol id="icon-instagram" viewBox="0 0 32 32">
<path d="M30.819 10.042c-0.072-1.632-0.336-2.754-0.714-3.727-0.39-1.032-0.99-1.956-1.776-2.724-0.768-0.78-1.698-1.386-2.719-1.77-0.978-0.378-2.094-0.642-3.727-0.714-1.644-0.078-2.167-0.096-6.337-0.096s-4.693 0.018-6.331 0.090c-1.632 0.072-2.754 0.336-3.727 0.714-1.032 0.39-1.956 0.99-2.725 1.776-0.78 0.768-1.386 1.698-1.77 2.719-0.378 0.978-0.642 2.094-0.714 3.727-0.078 1.644-0.096 2.167-0.096 6.337s0.018 4.693 0.090 6.331c0.072 1.632 0.336 2.754 0.714 3.727 0.39 1.032 0.996 1.956 1.776 2.724 0.768 0.78 1.698 1.386 2.719 1.77 0.978 0.378 2.094 0.642 3.727 0.714 1.638 0.072 2.16 0.090 6.331 0.090s4.693-0.018 6.331-0.090c1.632-0.072 2.754-0.336 3.727-0.714 2.064-0.798 3.697-2.43 4.495-4.495 0.378-0.978 0.642-2.095 0.714-3.727 0.072-1.638 0.090-2.16 0.090-6.331s-0.006-4.693-0.078-6.331zM28.052 22.585c-0.066 1.5-0.318 2.31-0.528 2.851-0.516 1.338-1.578 2.401-2.917 2.917-0.54 0.21-1.356 0.462-2.851 0.528-1.62 0.072-2.106 0.090-6.205 0.090s-4.591-0.018-6.205-0.090c-1.5-0.066-2.31-0.318-2.851-0.528-0.666-0.246-1.272-0.636-1.764-1.146-0.51-0.498-0.9-1.098-1.146-1.764-0.21-0.54-0.462-1.356-0.528-2.851-0.072-1.62-0.090-2.107-0.090-6.205s0.018-4.591 0.090-6.205c0.066-1.5 0.318-2.31 0.528-2.851 0.246-0.666 0.636-1.272 1.152-1.764 0.498-0.51 1.098-0.9 1.764-1.146 0.54-0.21 1.356-0.462 2.851-0.528 1.62-0.072 2.107-0.090 6.205-0.090 4.105 0 4.591 0.018 6.205 0.090 1.5 0.066 2.31 0.318 2.851 0.528 0.666 0.246 1.272 0.636 1.764 1.146 0.51 0.498 0.9 1.098 1.146 1.764 0.21 0.54 0.462 1.356 0.528 2.851 0.072 1.62 0.090 2.106 0.090 6.205s-0.018 4.579-0.090 6.199z"></path>
<path d="M15.546 8.482c-4.357 0-7.892 3.535-7.892 7.891s3.535 7.892 7.892 7.892c4.357 0 7.891-3.535 7.891-7.892s-3.535-7.892-7.891-7.892zM15.546 21.492c-2.826 0-5.119-2.292-5.119-5.119s2.293-5.119 5.119-5.119c2.827 0 5.119 2.292 5.119 5.119s-2.292 5.119-5.119 5.119z"></path>
<path d="M25.592 8.17c0 1.017-0.825 1.842-1.843 1.842s-1.842-0.825-1.842-1.842c0-1.018 0.825-1.842 1.842-1.842s1.843 0.825 1.843 1.842z"></path>
</symbol>
<symbol id="icon-planet-earth" viewBox="0 0 33 32">
<path fill="#89c8fd" style="fill: var(--color7, #89c8fd)" d="M24.242 18.41c0-5.816-4.702-10.531-10.503-10.531s-10.503 4.715-10.503 10.531c0 5.816 4.702 10.531 10.503 10.531s10.503-4.715 10.503-10.531v0z"></path>
<path fill="#60b6ff" style="fill: var(--color8, #60b6ff)" d="M13.739 7.879c-0.539 0-1.069 0.041-1.586 0.119 5.048 0.767 8.917 5.136 8.917 10.412s-3.869 9.645-8.917 10.412c0.517 0.079 1.047 0.119 1.586 0.119 5.801 0 10.503-4.715 10.503-10.531s-4.702-10.531-10.503-10.531v0z"></path>
<path fill="#baeb6c" style="fill: var(--color9, #baeb6c)" d="M12.374 11.971c-1.618 1.014-2.832 2.636-1.921 4.461s2.933 1.115 4.803 0.862c1.871-0.253 0.455 5.526 1.567 6.945s4.247-1.419 3.944-3.245c-0.449-2.702-0.607-3.65 3.034-5.576l0.010-0.004c-1.227-4.155-4.941-7.238-9.414-7.515l-0.001 0.016c0 0-0.405 3.042-2.022 4.056z"></path>
<path fill="#baeb6c" style="fill: var(--color9, #baeb6c)" d="M20.32 10.202c0.001 0.001 0.002 0.001 0.002 0.002-0.001-0.001-0.002-0.001-0.002-0.002z"></path>
<path fill="#baeb6c" style="fill: var(--color9, #baeb6c)" d="M21.604 11.431c0 0 0 0.001 0 0.001s-0-0-0-0.001z"></path>
<path fill="#baeb6c" style="fill: var(--color9, #baeb6c)" d="M6.762 23.175c-0.486-0.741 0.86-2.484 1.163-3.802s-1.517-1.217-2.073-1.673c-0.556-0.456-1.315-2.433-1.871-2.89l-0.089-0.070c-0.424 1.143-0.656 2.379-0.656 3.669 0 3.481 1.685 6.567 4.281 8.484l0.003-0.221c0 0 0.404-1.724-0.758-3.498v0z"></path>
<path fill="#baeb6c" style="fill: var(--color9, #baeb6c)" d="M20.767 20.995c-0.002-0.013-0.004-0.026-0.007-0.039-0.201 0.812-0.496 1.586-0.872 2.312 0.597-0.705 0.997-1.565 0.879-2.272z"></path>
<path fill="#96d629" style="fill: var(--color10, #96d629)" d="M14.397 7.9l-0 0.016c0 0-0.034 0.254-0.121 0.639 3.683 1.394 6.38 4.804 6.751 8.888 0.464-0.635 1.313-1.25 2.774-2.024l0.010-0.004c-1.227-4.155-4.941-7.238-9.414-7.515z"></path>
<path fill="#09a66d" style="fill: var(--color4, #09a66d)" d="M13.725 32c-0.744 0-1.493-0.061-2.242-0.185-3.579-0.591-6.714-2.541-8.827-5.489s-2.951-6.544-2.36-10.123c0.043-0.259 0.288-0.435 0.547-0.392s0.435 0.288 0.392 0.547c-0.55 3.328 0.23 6.672 2.195 9.414s4.88 4.555 8.209 5.105c6.872 1.135 13.384-3.532 14.52-10.403 0.55-3.328-0.23-6.672-2.195-9.414s-4.88-4.555-8.209-5.105c-0.259-0.043-0.435-0.288-0.392-0.547s0.288-0.435 0.547-0.392c3.58 0.591 6.715 2.541 8.827 5.489s2.951 6.544 2.36 10.123c-0.591 3.579-2.541 6.714-5.49 8.827-2.332 1.671-5.069 2.545-7.882 2.545v0z"></path>
<path fill="#49cb5c" style="fill: var(--color11, #49cb5c)" d="M10.836 11.493c-5.079-0.862-8.23-7.257-8.23-7.257s5.084-4.998 10.163-4.136c5.079 0.862 8.23 7.257 8.23 7.257s-5.084 4.998-10.163 4.136z"></path>
<path fill="#07b128" style="fill: var(--color12, #07b128)" d="M12.77 0.1c-0.97-0.165-1.94-0.115-2.874 0.072 4.867 1.093 7.869 7.184 7.869 7.184s-3.328 3.271-7.289 4.064c0.119 0.027 0.239 0.052 0.361 0.072 5.079 0.862 10.163-4.136 10.163-4.136s-3.151-6.395-8.23-7.257v0z"></path>
<path fill="#09a66d" style="fill: var(--color4, #09a66d)" d="M20.713 6.825l-4.967-0.838-4.64-5.974c-0.37 0.022-0.737 0.069-1.099 0.137l4.352 5.603-3.745-0.632-3.196-4.135c-0.3 0.135-0.591 0.279-0.872 0.428l2.685 3.474-6.193-1.045c-0.278 0.243-0.431 0.393-0.431 0.393s0.102 0.207 0.298 0.55l6.159 1.039-3.416 2.641c0.22 0.227 0.451 0.45 0.692 0.668l4.001-3.094 3.965 0.669-5.393 4.172c0.335 0.156 0.681 0.292 1.037 0.4l5.632-4.357 4.97 0.838c0.288-0.251 0.447-0.407 0.447-0.407s-0.098-0.199-0.287-0.531v0z"></path>
<path fill="#49cb5c" style="fill: var(--color11, #49cb5c)" d="M24.454 5.285c1.363-3.224 6.084-4.31 6.084-4.31s2.512 4.142 1.149 7.366c-1.362 3.224-6.084 4.31-6.084 4.31s-2.512-4.142-1.149-7.366z"></path>
<path fill="#07b128" style="fill: var(--color12, #07b128)" d="M30.538 0.976c0 0-1.073 0.247-2.345 0.855 0.652 1.381 1.686 4.185 0.703 6.511-0.713 1.687-2.344 2.788-3.739 3.455 0.252 0.533 0.447 0.855 0.447 0.855s4.721-1.085 6.084-4.31c1.362-3.224-1.15-7.366-1.15-7.366z"></path>
<path fill="#09a66d" style="fill: var(--color4, #09a66d)" d="M32.073 5.683l-3.63 1.523 2.384-5.699c-0.171-0.337-0.289-0.531-0.289-0.531s-0.225 0.052-0.59 0.166l-2.463 5.889-1.528-3.759c-0.259 0.228-0.503 0.476-0.724 0.745l1.731 4.259-1.626 3.887c0.159 0.31 0.266 0.488 0.266 0.488s0.244-0.056 0.637-0.181l1.679-4.014 4.152-1.742c0.028-0.345 0.026-0.691 0.002-1.033v0z"></path>
</symbol>
<symbol id="icon-list" viewBox="0 0 32 32">
<path fill="#09a66d" style="fill: var(--color4, #09a66d)" d="M11.829 22.412h8.11c0.253 0 0.457-0.205 0.457-0.457s-0.205-0.457-0.457-0.457h-8.11c-0.253 0-0.457 0.205-0.457 0.457s0.205 0.457 0.457 0.457zM13.262 11.92h5.429c0.414 0 0.773-0.266 0.893-0.662l1.139-3.755c0.087-0.286 0.035-0.587-0.143-0.827s-0.451-0.377-0.75-0.377h-0.406l-0.829-2.072c-0.191-0.477-0.646-0.785-1.159-0.785h-2.921c-0.514 0-0.969 0.308-1.159 0.785l-0.829 2.072h-0.406c-0.299 0-0.572 0.138-0.75 0.378s-0.23 0.541-0.143 0.827l1.14 3.755c0.12 0.396 0.479 0.662 0.893 0.662zM12.107 7.221c0.014-0.019 2.488-0.002 2.505-0.008 0.253 0 0.457-0.205 0.457-0.457s-0.205-0.457-0.457-0.457h-1.099l0.693-1.733c0.051-0.128 0.173-0.21 0.31-0.21h2.921c0.137 0 0.259 0.082 0.31 0.21l0.693 1.733h-1.694c-0.253 0-0.457 0.205-0.457 0.457s0.205 0.457 0.457 0.457c0.015 0 3.088-0.008 3.1 0.008 0.014 0.018-1.137 3.752-1.137 3.771 0 0.041-5.463 0.008-5.466 0-0.006-0.019-1.15-3.753-1.137-3.771zM11.829 26.974c-0.253 0-0.457 0.205-0.457 0.457s0.205 0.457 0.457 0.457h8.11c0.253 0 0.457-0.205 0.457-0.457s-0.205-0.457-0.457-0.457h-8.11zM24.055 25.602c0-0.253-0.205-0.457-0.457-0.457h-11.769c-0.253 0-0.457 0.205-0.457 0.457s0.205 0.457 0.457 0.457h11.769c0.253 0 0.457-0.205 0.457-0.457zM26.341 20.716c0.253 0 0.457-0.205 0.457-0.457v-17.275c0-1.261-1.026-2.287-2.287-2.287h-17.071c-1.261 0-2.287 1.026-2.287 2.287v26.646c0 1.261 1.026 2.287 2.287 2.287h17.071c1.261 0 2.287-1.026 2.287-2.287v-7.237c0-0.253-0.205-0.457-0.457-0.457s-0.457 0.205-0.457 0.457v7.237c0 0.757-0.616 1.372-1.372 1.372h-17.071c-0.757 0-1.372-0.616-1.372-1.372v-26.646c0-0.757 0.615-1.372 1.372-1.372h17.071c0.756 0 1.372 0.615 1.372 1.372v17.275c-0 0.253 0.205 0.457 0.457 0.457zM10.021 22.762c-0.225 0.003-0.461 0.005-0.678 0.006 0.154-0.209 0.348-0.478 0.591-0.825 0.213-0.304 0.363-0.579 0.402-0.865 0.006-0.047 0.019-0.131 0.019-0.176 0-0.681-0.554-1.236-1.236-1.236-0.589 0-1.099 0.419-1.213 0.997-0.049 0.248 0.113 0.488 0.361 0.537s0.488-0.113 0.537-0.361c0.029-0.15 0.162-0.258 0.315-0.258 0.169 0 0.309 0.132 0.32 0.298 0.012 0.164-0.072 0.278-0.255 0.539-0.48 0.687-0.767 1.062-0.921 1.263-0.269 0.352-0.397 0.811 0.068 0.966 0.060 0.020 1.267 0.034 1.701 0.028 0.253-0.003 0.455-0.21 0.451-0.463s-0.213-0.456-0.463-0.452zM23.598 19.668h-11.769c-0.253 0-0.457 0.205-0.457 0.457s0.205 0.457 0.457 0.457h11.769c0.253 0 0.457-0.205 0.457-0.457s-0.205-0.457-0.457-0.457zM9.191 25.145c-0.589 0-1.099 0.419-1.213 0.997-0.049 0.248 0.113 0.488 0.361 0.537s0.488-0.113 0.537-0.361c0.029-0.15 0.162-0.258 0.315-0.258 0.177 0 0.321 0.144 0.321 0.321s-0.144 0.321-0.321 0.321c-0.253 0-0.457 0.205-0.457 0.457s0.205 0.457 0.457 0.457c0.177 0 0.321 0.144 0.321 0.321s-0.144 0.321-0.321 0.321c-0.159 0-0.296-0.119-0.318-0.276-0.002-0.015-0.003-0.030-0.003-0.045 0-0.253-0.205-0.457-0.457-0.457s-0.457 0.205-0.457 0.457c0 0.672 0.557 1.236 1.236 1.236 0.681 0 1.236-0.554 1.236-1.236 0-0.295-0.104-0.566-0.277-0.778 0.173-0.213 0.277-0.484 0.277-0.778 0-0.681-0.554-1.236-1.236-1.236zM9.191 18.172c0.253 0 0.457-0.205 0.457-0.457v-3.042c0-0.252-0.205-0.457-0.457-0.457h-0.65c-0.253 0-0.457 0.205-0.457 0.457s0.205 0.457 0.457 0.457h0.193v2.585c0 0.253 0.205 0.457 0.457 0.457zM11.829 16.959h8.11c0.253 0 0.457-0.205 0.457-0.457s-0.205-0.457-0.457-0.457h-8.11c-0.253 0-0.457 0.205-0.457 0.457s0.205 0.457 0.457 0.457zM23.598 14.215h-11.769c-0.253 0-0.457 0.205-0.457 0.457s0.205 0.457 0.457 0.457h11.769c0.253 0 0.457-0.205 0.457-0.457s-0.205-0.457-0.457-0.457z"></path>
</symbol>
<symbol id="icon-star-part" viewBox="0 0 32 32">
<path fill="#fed42d" style="fill: var(--color13, #fed42d)" d="M31.954 12.329c-0.11-0.339-0.404-0.587-0.757-0.638l-9.92-1.442-4.436-8.989c-0.158-0.32-0.484-0.523-0.841-0.523s-0.683 0.203-0.841 0.523l-4.437 8.989-9.92 1.442c-0.353 0.051-0.647 0.299-0.757 0.638s-0.018 0.712 0.237 0.961l7.178 6.997-1.694 9.88c-0.060 0.352 0.084 0.707 0.373 0.917s0.671 0.238 0.987 0.071l8.873-4.665 8.872 4.665c0.137 0.072 0.287 0.108 0.436 0.108 0.194 0 0.388-0.060 0.551-0.179 0.289-0.21 0.433-0.565 0.373-0.917l-1.695-9.88 7.179-6.997c0.256-0.249 0.348-0.622 0.237-0.961z"></path>
<path fill="#fcbf29" style="fill: var(--color14, #fcbf29)" d="M31.954 12.329c-0.11-0.339-0.404-0.587-0.757-0.638l-9.92-1.442-4.436-8.989c-0.158-0.32-0.484-0.523-0.841-0.523v25.753l8.873 4.665c0.137 0.072 0.287 0.108 0.436 0.108 0.194 0 0.388-0.060 0.551-0.179 0.289-0.21 0.433-0.565 0.373-0.917l-1.695-9.88 7.179-6.997c0.256-0.249 0.348-0.622 0.237-0.961z"></path>
</symbol>
<symbol id="icon-user" viewBox="0 0 32 32">
<path fill="#09a66d" style="fill: var(--color4, #09a66d)" d="M16.002 0c-4.572 0-8.308 3.737-8.308 8.308s3.737 8.308 8.308 8.308c4.571 0 8.308-3.737 8.308-8.308s-3.737-8.308-8.308-8.308z"></path>
<path fill="#09a66d" style="fill: var(--color4, #09a66d)" d="M30.261 23.256c-0.218-0.544-0.508-1.052-0.834-1.524-1.669-2.467-4.245-4.1-7.147-4.499-0.363-0.036-0.762 0.036-1.052 0.254-1.524 1.125-3.338 1.705-5.224 1.705s-3.701-0.58-5.225-1.705c-0.29-0.218-0.689-0.326-1.052-0.254-2.902 0.399-5.515 2.032-7.147 4.499-0.327 0.472-0.617 1.016-0.834 1.524-0.109 0.218-0.073 0.472 0.036 0.689 0.29 0.508 0.653 1.016 0.98 1.451 0.508 0.689 1.052 1.306 1.669 1.887 0.508 0.508 1.088 0.98 1.669 1.451 2.866 2.141 6.313 3.265 9.868 3.265s7.002-1.125 9.869-3.265c0.581-0.435 1.161-0.943 1.669-1.451 0.581-0.581 1.161-1.197 1.669-1.887 0.363-0.472 0.689-0.943 0.98-1.451 0.181-0.218 0.218-0.472 0.109-0.689z"></path>
</symbol>
</defs>
</svg>
